<?xml version="1.0" encoding="UTF-8"?>
<svg width="8.4667mm" height="8.4584mm" version="1.1" viewBox="0 0 8.4667 8.4584"
preserveAspectRatio="xMidYMid meet" xmlns="http://www.w3.org/2000/svg">
 <g transform="translate(-57.352 -47.431)">
  <path d="m58.719 55.83c-0.3498-0.11689-0.53942-0.23436-0.80183-0.49674-0.39179-0.39174-0.56561-0.81308-0.56561-1.3711 0-0.34364 0.07321-0.65235 0.23413-0.98758 0.10286-0.21429 0.26083-0.39011 1.1958-1.331 1.1177-1.1248 1.2763-1.2547 1.7516-1.4344 0.32877-0.12433 0.93103-0.13819 1.2627-0.02905 0.46956 0.15454 0.88684 0.47764 0.93272 0.72222 0.03723 0.19852-0.0087 0.37453-0.12604 0.48682-0.23652 0.22563-0.49267 0.22253-0.80176-0.0097-0.34768-0.26124-0.70121-0.28292-1.121-0.06878-0.09254 0.04723-0.54441 0.46866-1.1078 1.0332-1.0319 1.034-1.1213 1.1544-1.1497 1.5472-0.01972 0.27277 0.04185 0.45854 0.216 0.65171 0.18279 0.20275 0.38576 0.29119 0.66962 0.29176 0.37209 7.69e-4 0.54699-0.10673 1.1755-0.72245l0.5481-0.5369 0.25871 0.10482c0.21728 0.08802 0.31752 0.10533 0.6257 0.10799l0.36699 0.0029-0.23404 0.24511c-0.58116 0.60865-1.4533 1.4373-1.6315 1.5501-0.35113 0.22228-0.57011 0.28465-1.0525 0.29975-0.34965 0.01097-0.47852-2.69e-4 -0.64574-0.05608zm2.7918-2.6404c-0.44501-0.11593-0.9075-0.40845-1.0197-0.64496-0.17716-0.37334 0.04685-0.74762 0.44738-0.74762 0.16818 0 0.23269 0.02405 0.45339 0.16901 0.2756 0.18101 0.49251 0.23793 0.73595 0.19311 0.34718-0.06387 0.45803-0.1514 1.4592-1.1517 1.0951-1.0941 1.1711-1.1995 1.1702-1.6224-5.87e-4 -0.28387-0.08898-0.48683-0.29177-0.66964-0.19317-0.17415-0.37896-0.23572-0.65171-0.21599-0.33999 0.02463-0.51775 0.13864-1.1313 0.72583l-0.5639 0.53963-0.17093-0.08417c-0.20992-0.10344-0.67711-0.17908-0.90977-0.14731l-0.17277 0.02357 0.81665-0.81881c0.86809-0.87037 1.062-1.0262 1.4708-1.1822 0.30699-0.11717 0.83602-0.16001 1.1484-0.09302 0.71387 0.15309 1.3397 0.77534 1.4853 1.4768 0.06455 0.31065 0.02722 0.88705-0.07465 1.1536-0.15497 0.40557-0.36384 0.65941-1.3787 1.6757-1.0512 1.0526-1.239 1.2025-1.7015 1.3578-0.30592 0.10274-0.85025 0.13328-1.1205 0.06282z" stroke-width=".037984"/>
 </g>
</svg>
