<?xml version="1.0" encoding="UTF-8"?>
<svg width="22.68" height="32" version="1.1" viewBox="0 0 6.0008 8.4667" xmlns="http://www.w3.org/2000/svg">
 <path d="m2.0675 0-0.034083 0.14114c-0.12211 0.50588-0.13215 0.52607-0.26133 0.52607-0.11016 0-0.12631 0.022991-0.12631 0.17963v0.17963h-0.71483c-0.71109 0-0.71536 6.983e-4 -0.82118 0.13523-0.1029 0.13082-0.14769 0.47361-0.071773 0.54953 0.019047 0.019045 1.3644 0.028635 2.9896 0.021351l2.955-0.013231 0.015136-0.23166c0.011629-0.17784-0.009699-0.25829-0.091822-0.34644-0.098722-0.10597-0.15227-0.11478-0.69518-0.11478h-0.58822v-0.17963c0-0.15599-0.01644-0.17963-0.1247-0.17963-0.10668 0-0.1363-0.040035-0.2053-0.27737-0.044346-0.15254-0.080595-0.30266-0.080595-0.33361 0-0.038997-0.32891-0.056236-1.0722-0.056236zm0.31446 0.41059h0.73668c0.82654 0 0.77959-0.023425 0.86479 0.43074l0.034684 0.18515h-0.87822c-0.50291 0-0.87822-0.020266-0.87822-0.047415 0-0.026075 0.027069-0.16465 0.060145-0.30794zm2.3968 1.6981c-1.4212-0.00457-4.2188 0.018403-4.2346 0.044407-0.020684 0.033962 0.41693 5.5093 0.4569 5.7166 0.040278 0.20894 0.22381 0.44498 0.40849 0.52537 0.12175 0.053002 0.52235 0.06984 1.6998 0.071372 1.7676 0.0023 1.8059-0.00558 2.0108-0.4146 0.10106-0.20182 0.12654-0.42774 0.2477-2.2009 0.07426-1.0868 0.16287-2.3645 0.19698-2.8395 0.034104-0.47494 0.044204-0.87464 0.022354-0.88814-0.013842-0.0085545-0.33463-0.013111-0.80835-0.014636zm-2.3118 0.70731 0.13653 0.016238c0.083655 0.00995 0.14158 0.05136 0.14956 0.10696 0.00716 0.049914 0.019642 1.1008 0.027667 2.3352l0.014635 2.2445-0.13042 0.015437-0.13042 0.015538-0.033581-0.73407c-0.018467-0.4037-0.033679-1.4688-0.033782-2.3669zm-0.82118 0.00682c0.14935 0 0.15396 0.00732 0.15477 0.24379 4.655e-4 0.13408 0.045339 1.1779 0.099641 2.3195 0.054302 1.1416 0.087162 2.0943 0.073077 2.1171-0.040268 0.065155-0.22554 0.048348-0.25101-0.022755-0.018217-0.050869-0.23046-4.2668-0.23046-4.5779 0-0.054444 0.048915-0.079793 0.15397-0.079793zm1.9317 0h0.12129v1.5058c0 0.82822-0.015134 1.8906-0.033681 2.3609-0.03364 0.85295-0.034016 0.85506-0.15397 0.85506h-0.12029v-2.1227c0-1.1675 0.014727-2.2299 0.032679-2.3609 0.028363-0.20692 0.048534-0.23818 0.15397-0.23818zm0.94248 0c0.12549 0 0.15397 0.021363 0.15387 0.11548-3.685e-4 0.41121-0.21189 4.5243-0.23457 4.561-0.035966 0.058188-0.21273 0.058987-0.2485 0.00111-0.015047-0.02435 0.017815-0.9886 0.073076-2.1428 0.05526-1.1542 0.10088-2.1967 0.10134-2.3167 7.953e-4 -0.20796 0.0079784-0.21813 0.15477-0.21813z" stroke-width=".051324"/>
</svg>
